<svg width="24" height="24" viewBox="0 0 24 24" fill="none" xmlns="http://www.w3.org/2000/svg">
<rect width="24" height="24" fill="white" fill-opacity="0.01"/>
<path d="M5 12.991C5 12.998 19.005 13 19.005 13C18.999 13 19 5.009 19 5.009C19 5.002 4.995 5 4.995 5C5.001 5 5 12.991 5 12.991ZM3 5.01C3 3.899 3.893 3 4.995 3H19.005C20.107 3 21 3.902 21 5.009V12.991C21 14.101 20.107 15 19.005 15H4.995C4.4642 14.9976 3.95603 14.7847 3.58201 14.4081C3.20798 14.0315 2.99867 13.5218 3 12.991V5.01ZM19 19C18.995 20.105 18.1 21 16.994 21H7.006C6.47526 20.9992 5.96639 20.7884 5.59053 20.4137C5.21468 20.039 5.00238 19.5307 5 19H19ZM20 16C19.9995 16.5292 19.7894 17.0367 19.4158 17.4115C19.0421 17.7863 18.5352 17.9979 18.006 18H5.994C5.46485 17.9976 4.95814 17.786 4.58454 17.4112C4.21093 17.0365 4.00079 16.5292 4 16H20Z" fill="#42526E"/>
<path fill-rule="evenodd" clip-rule="evenodd" d="M10.674 11.331C11.034 11.691 11.615 11.691 11.974 11.331L14.732 8.568C14.8904 8.39281 14.9753 8.16343 14.9692 7.92734C14.9631 7.69126 14.8665 7.46655 14.6993 7.29975C14.5321 7.13295 14.3072 7.03683 14.0711 7.0313C13.835 7.02576 13.6058 7.11122 13.431 7.27L11.323 9.38L10.568 8.626C10.3934 8.46502 10.1632 8.37782 9.92575 8.38265C9.68827 8.38748 9.46187 8.48397 9.29392 8.65192C9.12597 8.81987 9.02948 9.04627 9.02465 9.28375C9.01982 9.52122 9.10702 9.75136 9.268 9.926L10.674 11.331Z" fill="#42526E"/>
</svg>
