<svg width="24" height="25" viewBox="0 0 24 25" fill="none" xmlns="http://www.w3.org/2000/svg">
<g filter="url(#filter0_d_135_3678)">
<path d="M17.9561 16.9915H16.7655V15.2721C16.7645 14.5124 16.4506 13.784 15.8926 13.2468C15.3346 12.7096 14.578 12.4074 13.7888 12.4065H10.2169C9.42769 12.4074 8.67112 12.7096 8.1131 13.2468C7.55508 13.784 7.24116 14.5124 7.24022 15.2721V16.9915H6.04956V15.2721C6.05082 14.2085 6.49028 13.1887 7.27153 12.4366C8.05277 11.6845 9.11201 11.2615 10.2169 11.2603H13.7888C14.8937 11.2615 15.9529 11.6845 16.7342 12.4366C17.5154 13.1887 17.9549 14.2085 17.9561 15.2721V16.9915Z" fill="#253858"/>
<path d="M5.4547 3.23633C5.29681 3.23633 5.14539 3.29671 5.03374 3.40419C4.9221 3.51167 4.85938 3.65745 4.85938 3.80945V8.96754H6.05003V3.80945C6.05003 3.65745 5.98731 3.51167 5.87566 3.40419C5.76402 3.29671 5.61259 3.23633 5.4547 3.23633Z" fill="#253858"/>
<path d="M4.85938 0.943848V2.09009H7.83602V6.10194C7.83602 7.16595 8.27507 8.18638 9.05659 8.93875C9.83811 9.69112 10.8981 10.1138 12.0033 10.1138C13.1086 10.1138 14.1685 9.69112 14.95 8.93875C15.7316 8.18638 16.1706 7.16595 16.1706 6.10194V2.09009H19.1473V0.943848H4.85938ZM9.02667 2.09009H14.98V3.80946H9.02667V2.09009ZM12.0033 8.96755C11.2139 8.96755 10.4567 8.66564 9.89851 8.12823C9.34028 7.59083 9.02667 6.86195 9.02667 6.10194V4.9557H14.98V6.10194C14.98 6.86195 14.6663 7.59083 14.1081 8.12823C13.5499 8.66564 12.7928 8.96755 12.0033 8.96755Z" fill="#253858"/>
</g>
<defs>
<filter id="filter0_d_135_3678" x="0.859375" y="0.943848" width="22.2879" height="24.0479" filterUnits="userSpaceOnUse" color-interpolation-filters="sRGB">
<feFlood flood-opacity="0" result="BackgroundImageFix"/>
<feColorMatrix in="SourceAlpha" type="matrix" values="0 0 0 0 0 0 0 0 0 0 0 0 0 0 0 0 0 0 127 0" result="hardAlpha"/>
<feOffset dy="4"/>
<feGaussianBlur stdDeviation="2"/>
<feComposite in2="hardAlpha" operator="out"/>
<feColorMatrix type="matrix" values="0 0 0 0 0 0 0 0 0 0 0 0 0 0 0 0 0 0 0.25 0"/>
<feBlend mode="normal" in2="BackgroundImageFix" result="effect1_dropShadow_135_3678"/>
<feBlend mode="normal" in="SourceGraphic" in2="effect1_dropShadow_135_3678" result="shape"/>
</filter>
</defs>
</svg>
