<svg width="444" height="229" viewBox="0 0 444 229" fill="none" xmlns="http://www.w3.org/2000/svg">
<path d="M34.2305 43.1982V50H9.24512V43.1982H34.2305ZM11.6377 0.234375V50H3.05859V0.234375H11.6377ZM56.3447 50.6836C53.6104 50.6836 51.138 50.2393 48.9277 49.3506C46.7402 48.4391 44.8717 47.1745 43.3223 45.5566C41.7956 43.9388 40.6221 42.0361 39.8018 39.8486C38.9814 37.6611 38.5713 35.3027 38.5713 32.7734V31.4062C38.5713 28.5124 38.9928 25.8919 39.8359 23.5449C40.679 21.1979 41.8525 19.1927 43.3564 17.5293C44.8604 15.8431 46.6377 14.5557 48.6885 13.667C50.7393 12.7783 52.9609 12.334 55.3535 12.334C57.9967 12.334 60.3096 12.7783 62.292 13.667C64.2744 14.5557 65.915 15.8089 67.2139 17.4268C68.5355 19.0218 69.5153 20.9245 70.1533 23.1348C70.8141 25.3451 71.1445 27.7832 71.1445 30.4492V33.9697H42.5703V28.0566H63.0098V27.4072C62.9642 25.9261 62.668 24.5361 62.1211 23.2373C61.597 21.9385 60.7881 20.8903 59.6943 20.0928C58.6006 19.2952 57.1423 18.8965 55.3193 18.8965C53.9521 18.8965 52.7331 19.1927 51.6621 19.7852C50.6139 20.3548 49.7367 21.1865 49.0303 22.2803C48.3239 23.374 47.777 24.6956 47.3896 26.2451C47.0251 27.7718 46.8428 29.4922 46.8428 31.4062V32.7734C46.8428 34.3913 47.0592 35.8952 47.4922 37.2852C47.9479 38.6523 48.6087 39.8486 49.4746 40.874C50.3405 41.8994 51.3887 42.7083 52.6191 43.3008C53.8496 43.8704 55.251 44.1553 56.8232 44.1553C58.8057 44.1553 60.5716 43.7565 62.1211 42.959C63.6706 42.1615 65.015 41.0335 66.1543 39.5752L70.4951 43.7793C69.6976 44.9414 68.6608 46.0579 67.3848 47.1289C66.1087 48.1771 64.5479 49.0316 62.7021 49.6924C60.8792 50.3532 58.7601 50.6836 56.3447 50.6836ZM98.4199 42.583V24.9463C98.4199 23.6247 98.1807 22.4854 97.7021 21.5283C97.2236 20.5713 96.4945 19.8307 95.5146 19.3066C94.5576 18.7826 93.3499 18.5205 91.8916 18.5205C90.5472 18.5205 89.3851 18.7484 88.4053 19.2041C87.4255 19.6598 86.6621 20.2751 86.1152 21.0498C85.5684 21.8245 85.2949 22.7018 85.2949 23.6816H77.0918C77.0918 22.2233 77.445 20.8105 78.1514 19.4434C78.8577 18.0762 79.8831 16.8571 81.2275 15.7861C82.5719 14.7152 84.1784 13.8721 86.0469 13.2568C87.9154 12.6416 90.0117 12.334 92.3359 12.334C95.1159 12.334 97.5768 12.8011 99.7188 13.7354C101.883 14.6696 103.581 16.0824 104.812 17.9736C106.065 19.8421 106.691 22.1891 106.691 25.0146V41.4551C106.691 43.1413 106.805 44.6566 107.033 46.001C107.284 47.3226 107.637 48.4733 108.093 49.4531V50H99.6504C99.263 49.1113 98.9554 47.9834 98.7275 46.6162C98.5225 45.2262 98.4199 43.8818 98.4199 42.583ZM99.6162 27.5098L99.6846 32.6025H93.7715C92.2448 32.6025 90.9004 32.7507 89.7383 33.0469C88.5762 33.3203 87.6077 33.7305 86.833 34.2773C86.0583 34.8242 85.4772 35.485 85.0898 36.2598C84.7025 37.0345 84.5088 37.9118 84.5088 38.8916C84.5088 39.8714 84.7367 40.7715 85.1924 41.5918C85.6481 42.3893 86.3089 43.016 87.1748 43.4717C88.0635 43.9274 89.1344 44.1553 90.3877 44.1553C92.0739 44.1553 93.5436 43.8135 94.7969 43.1299C96.0729 42.4235 97.0755 41.569 97.8047 40.5664C98.5339 39.541 98.9212 38.5726 98.9668 37.6611L101.633 41.3184C101.359 42.2526 100.892 43.2552 100.231 44.3262C99.5706 45.3971 98.7048 46.4225 97.6338 47.4023C96.5856 48.3594 95.321 49.1455 93.8398 49.7607C92.3815 50.376 90.6953 50.6836 88.7812 50.6836C86.3659 50.6836 84.2126 50.2051 82.3213 49.248C80.43 48.2682 78.9489 46.958 77.8779 45.3174C76.807 43.654 76.2715 41.7741 76.2715 39.6777C76.2715 37.7181 76.6361 35.9863 77.3652 34.4824C78.1172 32.9557 79.2109 31.6797 80.6465 30.6543C82.1048 29.6289 83.8822 28.8542 85.9785 28.3301C88.0749 27.7832 90.4674 27.5098 93.1562 27.5098H99.6162ZM123.576 20.0586V50H115.339V13.0176H123.2L123.576 20.0586ZM134.89 12.7783L134.821 20.4346C134.32 20.3434 133.773 20.2751 133.181 20.2295C132.611 20.1839 132.041 20.1611 131.472 20.1611C130.059 20.1611 128.817 20.3662 127.746 20.7764C126.675 21.1637 125.775 21.7334 125.046 22.4854C124.34 23.2145 123.793 24.1032 123.405 25.1514C123.018 26.1995 122.79 27.373 122.722 28.6719L120.842 28.8086C120.842 26.4844 121.07 24.3311 121.525 22.3486C121.981 20.3662 122.665 18.623 123.576 17.1191C124.51 15.6152 125.673 14.4417 127.062 13.5986C128.475 12.7555 130.104 12.334 131.95 12.334C132.451 12.334 132.987 12.3796 133.557 12.4707C134.149 12.5618 134.593 12.6644 134.89 12.7783ZM148.22 20.9131V50H139.982V13.0176H147.741L148.22 20.9131ZM146.75 30.1416L144.084 30.1074C144.107 27.487 144.471 25.083 145.178 22.8955C145.907 20.708 146.91 18.8281 148.186 17.2559C149.484 15.6836 151.034 14.4759 152.834 13.6328C154.634 12.7669 156.639 12.334 158.85 12.334C160.627 12.334 162.233 12.5846 163.669 13.0859C165.127 13.5645 166.369 14.3506 167.395 15.4443C168.443 16.5381 169.24 17.9622 169.787 19.7168C170.334 21.4486 170.607 23.5791 170.607 26.1084V50H162.336V26.0742C162.336 24.2969 162.074 22.8955 161.55 21.8701C161.049 20.8219 160.308 20.0814 159.328 19.6484C158.371 19.1927 157.175 18.9648 155.739 18.9648C154.326 18.9648 153.062 19.2611 151.945 19.8535C150.829 20.446 149.883 21.2549 149.108 22.2803C148.356 23.3057 147.775 24.4906 147.365 25.835C146.955 27.1794 146.75 28.6149 146.75 30.1416ZM194.875 31.9189V31.1328C194.875 28.4668 195.262 25.9945 196.037 23.7158C196.812 21.4144 197.928 19.4206 199.387 17.7344C200.868 16.0254 202.668 14.7038 204.787 13.7695C206.929 12.8125 209.344 12.334 212.033 12.334C214.745 12.334 217.16 12.8125 219.279 13.7695C221.421 14.7038 223.233 16.0254 224.714 17.7344C226.195 19.4206 227.323 21.4144 228.098 23.7158C228.872 25.9945 229.26 28.4668 229.26 31.1328V31.9189C229.26 34.585 228.872 37.0573 228.098 39.3359C227.323 41.6146 226.195 43.6084 224.714 45.3174C223.233 47.0036 221.433 48.3252 219.313 49.2822C217.194 50.2165 214.79 50.6836 212.102 50.6836C209.39 50.6836 206.963 50.2165 204.821 49.2822C202.702 48.3252 200.902 47.0036 199.421 45.3174C197.94 43.6084 196.812 41.6146 196.037 39.3359C195.262 37.0573 194.875 34.585 194.875 31.9189ZM203.112 31.1328V31.9189C203.112 33.5824 203.283 35.1546 203.625 36.6357C203.967 38.1169 204.502 39.4157 205.231 40.5322C205.961 41.6488 206.895 42.526 208.034 43.1641C209.174 43.8021 210.529 44.1211 212.102 44.1211C213.628 44.1211 214.95 43.8021 216.066 43.1641C217.206 42.526 218.14 41.6488 218.869 40.5322C219.598 39.4157 220.134 38.1169 220.476 36.6357C220.84 35.1546 221.022 33.5824 221.022 31.9189V31.1328C221.022 29.4922 220.84 27.9427 220.476 26.4844C220.134 25.0033 219.587 23.693 218.835 22.5537C218.106 21.4144 217.172 20.5257 216.032 19.8877C214.916 19.2269 213.583 18.8965 212.033 18.8965C210.484 18.8965 209.139 19.2269 208 19.8877C206.883 20.5257 205.961 21.4144 205.231 22.5537C204.502 23.693 203.967 25.0033 203.625 26.4844C203.283 27.9427 203.112 29.4922 203.112 31.1328ZM244.333 20.9131V50H236.096V13.0176H243.854L244.333 20.9131ZM242.863 30.1416L240.197 30.1074C240.22 27.487 240.585 25.083 241.291 22.8955C242.02 20.708 243.023 18.8281 244.299 17.2559C245.598 15.6836 247.147 14.4759 248.947 13.6328C250.747 12.7669 252.753 12.334 254.963 12.334C256.74 12.334 258.347 12.5846 259.782 13.0859C261.241 13.5645 262.482 14.3506 263.508 15.4443C264.556 16.5381 265.354 17.9622 265.9 19.7168C266.447 21.4486 266.721 23.5791 266.721 26.1084V50H258.449V26.0742C258.449 24.2969 258.187 22.8955 257.663 21.8701C257.162 20.8219 256.421 20.0814 255.441 19.6484C254.484 19.1927 253.288 18.9648 251.853 18.9648C250.44 18.9648 249.175 19.2611 248.059 19.8535C246.942 20.446 245.996 21.2549 245.222 22.2803C244.47 23.3057 243.889 24.4906 243.479 25.835C243.068 27.1794 242.863 28.6149 242.863 30.1416ZM303.293 45.9668L313.342 13.0176H322.16L307.326 55.6396C306.984 56.5511 306.54 57.5423 305.993 58.6133C305.446 59.6842 304.729 60.6982 303.84 61.6553C302.974 62.6351 301.892 63.4212 300.593 64.0137C299.294 64.6289 297.722 64.9365 295.876 64.9365C295.147 64.9365 294.44 64.8682 293.757 64.7314C293.096 64.6175 292.469 64.4922 291.877 64.3555L291.843 58.0664C292.071 58.0892 292.344 58.112 292.663 58.1348C293.005 58.1576 293.278 58.1689 293.483 58.1689C294.851 58.1689 295.99 57.998 296.901 57.6562C297.813 57.3372 298.553 56.8132 299.123 56.084C299.715 55.3548 300.217 54.375 300.627 53.1445L303.293 45.9668ZM297.619 13.0176L306.403 40.7031L307.873 49.3848L302.165 50.8545L288.732 13.0176H297.619ZM324.758 31.9189V31.1328C324.758 28.4668 325.145 25.9945 325.92 23.7158C326.695 21.4144 327.811 19.4206 329.27 17.7344C330.751 16.0254 332.551 14.7038 334.67 13.7695C336.812 12.8125 339.227 12.334 341.916 12.334C344.628 12.334 347.043 12.8125 349.162 13.7695C351.304 14.7038 353.116 16.0254 354.597 17.7344C356.078 19.4206 357.206 21.4144 357.98 23.7158C358.755 25.9945 359.143 28.4668 359.143 31.1328V31.9189C359.143 34.585 358.755 37.0573 357.98 39.3359C357.206 41.6146 356.078 43.6084 354.597 45.3174C353.116 47.0036 351.315 48.3252 349.196 49.2822C347.077 50.2165 344.673 50.6836 341.984 50.6836C339.273 50.6836 336.846 50.2165 334.704 49.2822C332.585 48.3252 330.785 47.0036 329.304 45.3174C327.823 43.6084 326.695 41.6146 325.92 39.3359C325.145 37.0573 324.758 34.585 324.758 31.9189ZM332.995 31.1328V31.9189C332.995 33.5824 333.166 35.1546 333.508 36.6357C333.85 38.1169 334.385 39.4157 335.114 40.5322C335.843 41.6488 336.778 42.526 337.917 43.1641C339.056 43.8021 340.412 44.1211 341.984 44.1211C343.511 44.1211 344.833 43.8021 345.949 43.1641C347.089 42.526 348.023 41.6488 348.752 40.5322C349.481 39.4157 350.017 38.1169 350.358 36.6357C350.723 35.1546 350.905 33.5824 350.905 31.9189V31.1328C350.905 29.4922 350.723 27.9427 350.358 26.4844C350.017 25.0033 349.47 23.693 348.718 22.5537C347.989 21.4144 347.054 20.5257 345.915 19.8877C344.799 19.2269 343.465 18.8965 341.916 18.8965C340.367 18.8965 339.022 19.2269 337.883 19.8877C336.766 20.5257 335.843 21.4144 335.114 22.5537C334.385 23.693 333.85 25.0033 333.508 26.4844C333.166 27.9427 332.995 29.4922 332.995 31.1328ZM388.298 41.2842V13.0176H396.569V50H388.776L388.298 41.2842ZM389.46 33.5938L392.229 33.5254C392.229 36.0091 391.955 38.2992 391.408 40.3955C390.861 42.4691 390.018 44.2806 388.879 45.8301C387.74 47.3568 386.281 48.5531 384.504 49.4189C382.727 50.262 380.596 50.6836 378.112 50.6836C376.312 50.6836 374.66 50.4215 373.156 49.8975C371.652 49.3734 370.354 48.5645 369.26 47.4707C368.189 46.377 367.357 44.9528 366.765 43.1982C366.172 41.4437 365.876 39.3473 365.876 36.9092V13.0176H374.113V36.9775C374.113 38.3219 374.273 39.4499 374.592 40.3613C374.911 41.25 375.344 41.9678 375.891 42.5146C376.438 43.0615 377.076 43.4489 377.805 43.6768C378.534 43.9046 379.309 44.0186 380.129 44.0186C382.476 44.0186 384.322 43.5628 385.666 42.6514C387.033 41.7171 388.002 40.4639 388.571 38.8916C389.164 37.3193 389.46 35.5534 389.46 33.5938ZM413.283 20.0586V50H405.046V13.0176H412.907L413.283 20.0586ZM424.597 12.7783L424.528 20.4346C424.027 20.3434 423.48 20.2751 422.888 20.2295C422.318 20.1839 421.748 20.1611 421.179 20.1611C419.766 20.1611 418.524 20.3662 417.453 20.7764C416.382 21.1637 415.482 21.7334 414.753 22.4854C414.047 23.2145 413.5 24.1032 413.112 25.1514C412.725 26.1995 412.497 27.373 412.429 28.6719L410.549 28.8086C410.549 26.4844 410.777 24.3311 411.232 22.3486C411.688 20.3662 412.372 18.623 413.283 17.1191C414.217 15.6152 415.38 14.4417 416.77 13.5986C418.182 12.7555 419.812 12.334 421.657 12.334C422.159 12.334 422.694 12.3796 423.264 12.4707C423.856 12.5618 424.3 12.6644 424.597 12.7783ZM22.9854 121.985C22.9854 121.165 22.7803 120.424 22.3701 119.764C21.96 119.08 21.1738 118.465 20.0117 117.918C18.8724 117.371 17.1862 116.87 14.9531 116.414C12.9935 115.981 11.1934 115.468 9.55273 114.876C7.9349 114.261 6.54492 113.52 5.38281 112.654C4.2207 111.788 3.32064 110.763 2.68262 109.578C2.0446 108.393 1.72559 107.026 1.72559 105.477C1.72559 103.973 2.05599 102.549 2.7168 101.204C3.3776 99.8597 4.32324 98.6748 5.55371 97.6494C6.78418 96.624 8.27669 95.8151 10.0312 95.2227C11.8086 94.6302 13.791 94.334 15.9785 94.334C19.0775 94.334 21.7321 94.8581 23.9424 95.9062C26.1755 96.9316 27.8844 98.333 29.0693 100.11C30.2542 101.865 30.8467 103.847 30.8467 106.058H22.6094C22.6094 105.078 22.3587 104.166 21.8574 103.323C21.3789 102.457 20.6497 101.762 19.6699 101.238C18.6901 100.691 17.4596 100.418 15.9785 100.418C14.5658 100.418 13.3923 100.646 12.458 101.102C11.5465 101.535 10.863 102.104 10.4072 102.811C9.97428 103.517 9.75781 104.292 9.75781 105.135C9.75781 105.75 9.87174 106.308 10.0996 106.81C10.3503 107.288 10.7604 107.732 11.3301 108.143C11.8997 108.53 12.6745 108.895 13.6543 109.236C14.6569 109.578 15.9102 109.909 17.4141 110.228C20.2396 110.82 22.6663 111.583 24.6943 112.518C26.7451 113.429 28.3174 114.614 29.4111 116.072C30.5049 117.508 31.0518 119.331 31.0518 121.541C31.0518 123.182 30.6986 124.686 29.9922 126.053C29.3086 127.397 28.306 128.571 26.9844 129.573C25.6628 130.553 24.0791 131.316 22.2334 131.863C20.4105 132.41 18.3597 132.684 16.0811 132.684C12.7314 132.684 9.89453 132.091 7.57031 130.906C5.24609 129.699 3.48014 128.16 2.27246 126.292C1.08757 124.401 0.495117 122.441 0.495117 120.413H8.45898C8.55013 121.94 8.97168 123.159 9.72363 124.07C10.4984 124.959 11.4554 125.608 12.5947 126.019C13.7568 126.406 14.9531 126.6 16.1836 126.6C17.6647 126.6 18.9066 126.406 19.9092 126.019C20.9118 125.608 21.6751 125.062 22.1992 124.378C22.7233 123.672 22.9854 122.874 22.9854 121.985ZM53.3711 126.121C54.7155 126.121 55.9232 125.859 56.9941 125.335C58.0879 124.788 58.9652 124.036 59.626 123.079C60.3096 122.122 60.6855 121.017 60.7539 119.764H68.5127C68.4671 122.156 67.7607 124.332 66.3936 126.292C65.0264 128.252 63.2148 129.812 60.959 130.975C58.7031 132.114 56.208 132.684 53.4736 132.684C50.6481 132.684 48.1872 132.205 46.0908 131.248C43.9945 130.268 42.2513 128.924 40.8613 127.215C39.4714 125.506 38.4232 123.535 37.7168 121.302C37.0332 119.069 36.6914 116.676 36.6914 114.124V112.928C36.6914 110.376 37.0332 107.983 37.7168 105.75C38.4232 103.494 39.4714 101.512 40.8613 99.8027C42.2513 98.0938 43.9945 96.7607 46.0908 95.8037C48.1872 94.8239 50.6367 94.334 53.4395 94.334C56.4017 94.334 58.9993 94.9264 61.2324 96.1113C63.4655 97.2734 65.2201 98.9027 66.4961 100.999C67.7949 103.073 68.4671 105.488 68.5127 108.245H60.7539C60.6855 106.878 60.3438 105.647 59.7285 104.554C59.1361 103.437 58.293 102.549 57.1992 101.888C56.1283 101.227 54.8408 100.896 53.3369 100.896C51.6735 100.896 50.2949 101.238 49.2012 101.922C48.1074 102.583 47.2529 103.494 46.6377 104.656C46.0225 105.796 45.5781 107.083 45.3047 108.519C45.054 109.931 44.9287 111.401 44.9287 112.928V114.124C44.9287 115.651 45.054 117.132 45.3047 118.567C45.5553 120.003 45.9883 121.29 46.6035 122.43C47.2415 123.546 48.1074 124.446 49.2012 125.13C50.2949 125.791 51.6849 126.121 53.3711 126.121ZM82.9707 79.5V132H74.7676V79.5H82.9707ZM81.5352 112.142L78.8691 112.107C78.8919 109.555 79.2451 107.197 79.9287 105.032C80.6351 102.868 81.6149 100.988 82.8682 99.3926C84.1442 97.7747 85.6709 96.5329 87.4482 95.667C89.2256 94.7783 91.1966 94.334 93.3613 94.334C95.1842 94.334 96.8249 94.5846 98.2832 95.0859C99.7643 95.5872 101.04 96.3962 102.111 97.5127C103.182 98.6064 103.991 100.042 104.538 101.819C105.108 103.574 105.393 105.716 105.393 108.245V132H97.1211V108.177C97.1211 106.399 96.859 104.987 96.335 103.938C95.8337 102.89 95.0931 102.138 94.1133 101.683C93.1335 101.204 91.9372 100.965 90.5244 100.965C89.0433 100.965 87.7331 101.261 86.5938 101.854C85.4772 102.446 84.543 103.255 83.791 104.28C83.0391 105.306 82.4694 106.491 82.082 107.835C81.7174 109.179 81.5352 110.615 81.5352 112.142ZM130.036 132.684C127.302 132.684 124.829 132.239 122.619 131.351C120.432 130.439 118.563 129.174 117.014 127.557C115.487 125.939 114.313 124.036 113.493 121.849C112.673 119.661 112.263 117.303 112.263 114.773V113.406C112.263 110.512 112.684 107.892 113.527 105.545C114.37 103.198 115.544 101.193 117.048 99.5293C118.552 97.8431 120.329 96.5557 122.38 95.667C124.431 94.7783 126.652 94.334 129.045 94.334C131.688 94.334 134.001 94.7783 135.983 95.667C137.966 96.5557 139.606 97.8089 140.905 99.4268C142.227 101.022 143.207 102.924 143.845 105.135C144.506 107.345 144.836 109.783 144.836 112.449V115.97H116.262V110.057H136.701V109.407C136.656 107.926 136.359 106.536 135.812 105.237C135.288 103.938 134.479 102.89 133.386 102.093C132.292 101.295 130.834 100.896 129.011 100.896C127.644 100.896 126.424 101.193 125.354 101.785C124.305 102.355 123.428 103.187 122.722 104.28C122.015 105.374 121.468 106.696 121.081 108.245C120.716 109.772 120.534 111.492 120.534 113.406V114.773C120.534 116.391 120.751 117.895 121.184 119.285C121.639 120.652 122.3 121.849 123.166 122.874C124.032 123.899 125.08 124.708 126.311 125.301C127.541 125.87 128.942 126.155 130.515 126.155C132.497 126.155 134.263 125.757 135.812 124.959C137.362 124.161 138.706 123.034 139.846 121.575L144.187 125.779C143.389 126.941 142.352 128.058 141.076 129.129C139.8 130.177 138.239 131.032 136.394 131.692C134.571 132.353 132.451 132.684 130.036 132.684ZM173.82 124.344V79.5H182.092V132H174.606L173.82 124.344ZM149.758 113.919V113.201C149.758 110.398 150.088 107.846 150.749 105.545C151.41 103.221 152.367 101.227 153.62 99.5635C154.873 97.8773 156.4 96.5898 158.2 95.7012C160 94.7897 162.028 94.334 164.284 94.334C166.517 94.334 168.477 94.7669 170.163 95.6328C171.849 96.4987 173.285 97.7406 174.47 99.3584C175.655 100.953 176.6 102.868 177.307 105.101C178.013 107.311 178.514 109.772 178.811 112.483V114.773C178.514 117.417 178.013 119.832 177.307 122.02C176.6 124.207 175.655 126.098 174.47 127.693C173.285 129.288 171.838 130.519 170.129 131.385C168.443 132.251 166.472 132.684 164.216 132.684C161.983 132.684 159.966 132.216 158.166 131.282C156.389 130.348 154.873 129.038 153.62 127.352C152.367 125.665 151.41 123.683 150.749 121.404C150.088 119.103 149.758 116.608 149.758 113.919ZM157.995 113.201V113.919C157.995 115.605 158.143 117.177 158.439 118.636C158.758 120.094 159.248 121.382 159.909 122.498C160.57 123.592 161.424 124.458 162.473 125.096C163.544 125.711 164.82 126.019 166.301 126.019C168.169 126.019 169.707 125.608 170.915 124.788C172.123 123.968 173.068 122.863 173.752 121.473C174.458 120.06 174.937 118.488 175.188 116.756V110.569C175.051 109.225 174.766 107.972 174.333 106.81C173.923 105.647 173.365 104.633 172.658 103.768C171.952 102.879 171.075 102.195 170.026 101.717C169.001 101.215 167.782 100.965 166.369 100.965C164.865 100.965 163.589 101.284 162.541 101.922C161.493 102.56 160.627 103.437 159.943 104.554C159.283 105.67 158.793 106.969 158.474 108.45C158.155 109.931 157.995 111.515 157.995 113.201ZM212.956 123.284V95.0176H221.228V132H213.435L212.956 123.284ZM214.118 115.594L216.887 115.525C216.887 118.009 216.613 120.299 216.066 122.396C215.52 124.469 214.676 126.281 213.537 127.83C212.398 129.357 210.939 130.553 209.162 131.419C207.385 132.262 205.254 132.684 202.771 132.684C200.97 132.684 199.318 132.422 197.814 131.897C196.311 131.373 195.012 130.564 193.918 129.471C192.847 128.377 192.015 126.953 191.423 125.198C190.83 123.444 190.534 121.347 190.534 118.909V95.0176H198.771V118.978C198.771 120.322 198.931 121.45 199.25 122.361C199.569 123.25 200.002 123.968 200.549 124.515C201.096 125.062 201.734 125.449 202.463 125.677C203.192 125.905 203.967 126.019 204.787 126.019C207.134 126.019 208.98 125.563 210.324 124.651C211.691 123.717 212.66 122.464 213.229 120.892C213.822 119.319 214.118 117.553 214.118 115.594ZM238.488 79.5V132H230.217V79.5H238.488ZM263.815 132.684C261.081 132.684 258.609 132.239 256.398 131.351C254.211 130.439 252.342 129.174 250.793 127.557C249.266 125.939 248.093 124.036 247.272 121.849C246.452 119.661 246.042 117.303 246.042 114.773V113.406C246.042 110.512 246.464 107.892 247.307 105.545C248.15 103.198 249.323 101.193 250.827 99.5293C252.331 97.8431 254.108 96.5557 256.159 95.667C258.21 94.7783 260.432 94.334 262.824 94.334C265.467 94.334 267.78 94.7783 269.763 95.667C271.745 96.5557 273.386 97.8089 274.685 99.4268C276.006 101.022 276.986 102.924 277.624 105.135C278.285 107.345 278.615 109.783 278.615 112.449V115.97H250.041V110.057H270.48V109.407C270.435 107.926 270.139 106.536 269.592 105.237C269.068 103.938 268.259 102.89 267.165 102.093C266.071 101.295 264.613 100.896 262.79 100.896C261.423 100.896 260.204 101.193 259.133 101.785C258.085 102.355 257.207 103.187 256.501 104.28C255.795 105.374 255.248 106.696 254.86 108.245C254.496 109.772 254.313 111.492 254.313 113.406V114.773C254.313 116.391 254.53 117.895 254.963 119.285C255.419 120.652 256.079 121.849 256.945 122.874C257.811 123.899 258.859 124.708 260.09 125.301C261.32 125.87 262.722 126.155 264.294 126.155C266.276 126.155 268.042 125.757 269.592 124.959C271.141 124.161 272.486 123.034 273.625 121.575L277.966 125.779C277.168 126.941 276.132 128.058 274.855 129.129C273.579 130.177 272.019 131.032 270.173 131.692C268.35 132.353 266.231 132.684 263.815 132.684ZM313.615 132H305.378V91.4629C305.378 88.7057 305.891 86.3929 306.916 84.5244C307.964 82.6331 309.457 81.209 311.394 80.252C313.33 79.2721 315.62 78.7822 318.264 78.7822C319.084 78.7822 319.893 78.8392 320.69 78.9531C321.488 79.0443 322.263 79.1924 323.015 79.3975L322.81 85.7549C322.354 85.641 321.853 85.5612 321.306 85.5156C320.782 85.4701 320.212 85.4473 319.597 85.4473C318.343 85.4473 317.261 85.6865 316.35 86.165C315.461 86.6208 314.777 87.293 314.299 88.1816C313.843 89.0703 313.615 90.1641 313.615 91.4629V132ZM321.237 95.0176V101.033H299.704V95.0176H321.237ZM335.49 102.059V132H327.253V95.0176H335.114L335.49 102.059ZM346.804 94.7783L346.735 102.435C346.234 102.343 345.687 102.275 345.095 102.229C344.525 102.184 343.955 102.161 343.386 102.161C341.973 102.161 340.731 102.366 339.66 102.776C338.589 103.164 337.689 103.733 336.96 104.485C336.254 105.215 335.707 106.103 335.319 107.151C334.932 108.2 334.704 109.373 334.636 110.672L332.756 110.809C332.756 108.484 332.984 106.331 333.439 104.349C333.895 102.366 334.579 100.623 335.49 99.1191C336.424 97.6152 337.587 96.4417 338.977 95.5986C340.389 94.7555 342.019 94.334 343.864 94.334C344.366 94.334 344.901 94.3796 345.471 94.4707C346.063 94.5618 346.507 94.6644 346.804 94.7783ZM349.504 113.919V113.133C349.504 110.467 349.891 107.994 350.666 105.716C351.441 103.414 352.557 101.421 354.016 99.7344C355.497 98.0254 357.297 96.7038 359.416 95.7695C361.558 94.8125 363.973 94.334 366.662 94.334C369.374 94.334 371.789 94.8125 373.908 95.7695C376.05 96.7038 377.862 98.0254 379.343 99.7344C380.824 101.421 381.952 103.414 382.727 105.716C383.501 107.994 383.889 110.467 383.889 113.133V113.919C383.889 116.585 383.501 119.057 382.727 121.336C381.952 123.615 380.824 125.608 379.343 127.317C377.862 129.004 376.062 130.325 373.942 131.282C371.823 132.216 369.419 132.684 366.73 132.684C364.019 132.684 361.592 132.216 359.45 131.282C357.331 130.325 355.531 129.004 354.05 127.317C352.569 125.608 351.441 123.615 350.666 121.336C349.891 119.057 349.504 116.585 349.504 113.919ZM357.741 113.133V113.919C357.741 115.582 357.912 117.155 358.254 118.636C358.596 120.117 359.131 121.416 359.86 122.532C360.59 123.649 361.524 124.526 362.663 125.164C363.802 125.802 365.158 126.121 366.73 126.121C368.257 126.121 369.579 125.802 370.695 125.164C371.835 124.526 372.769 123.649 373.498 122.532C374.227 121.416 374.763 120.117 375.104 118.636C375.469 117.155 375.651 115.582 375.651 113.919V113.133C375.651 111.492 375.469 109.943 375.104 108.484C374.763 107.003 374.216 105.693 373.464 104.554C372.735 103.414 371.8 102.526 370.661 101.888C369.545 101.227 368.212 100.896 366.662 100.896C365.113 100.896 363.768 101.227 362.629 101.888C361.512 102.526 360.59 103.414 359.86 104.554C359.131 105.693 358.596 107.003 358.254 108.484C357.912 109.943 357.741 111.492 357.741 113.133ZM399.03 102.537V132H390.793V95.0176H398.552L399.03 102.537ZM397.697 112.142L394.895 112.107C394.895 109.555 395.214 107.197 395.852 105.032C396.49 102.868 397.424 100.988 398.654 99.3926C399.885 97.7747 401.411 96.5329 403.234 95.667C405.08 94.7783 407.211 94.334 409.626 94.334C411.312 94.334 412.85 94.5846 414.24 95.0859C415.653 95.5645 416.872 96.3278 417.897 97.376C418.946 98.4242 419.743 99.7686 420.29 101.409C420.86 103.05 421.145 105.032 421.145 107.356V132H412.907V108.074C412.907 106.274 412.634 104.861 412.087 103.836C411.563 102.811 410.799 102.081 409.797 101.648C408.817 101.193 407.644 100.965 406.276 100.965C404.727 100.965 403.405 101.261 402.312 101.854C401.241 102.446 400.363 103.255 399.68 104.28C398.996 105.306 398.495 106.491 398.176 107.835C397.857 109.179 397.697 110.615 397.697 112.142ZM420.632 109.954L416.77 110.809C416.77 108.576 417.077 106.468 417.692 104.485C418.33 102.48 419.253 100.726 420.461 99.2217C421.691 97.695 423.207 96.4987 425.007 95.6328C426.807 94.7669 428.869 94.334 431.193 94.334C433.085 94.334 434.771 94.596 436.252 95.1201C437.756 95.6214 439.032 96.4189 440.08 97.5127C441.128 98.6064 441.926 100.031 442.473 101.785C443.02 103.517 443.293 105.613 443.293 108.074V132H435.021V108.04C435.021 106.172 434.748 104.725 434.201 103.699C433.677 102.674 432.925 101.967 431.945 101.58C430.965 101.17 429.792 100.965 428.425 100.965C427.149 100.965 426.021 101.204 425.041 101.683C424.084 102.138 423.275 102.788 422.614 103.631C421.953 104.451 421.452 105.397 421.11 106.468C420.791 107.539 420.632 108.701 420.632 109.954ZM23.0879 206.583V188.946C23.0879 187.625 22.8486 186.485 22.3701 185.528C21.8916 184.571 21.1624 183.831 20.1826 183.307C19.2256 182.783 18.0179 182.521 16.5596 182.521C15.2152 182.521 14.0531 182.748 13.0732 183.204C12.0934 183.66 11.3301 184.275 10.7832 185.05C10.2363 185.825 9.96289 186.702 9.96289 187.682H1.75977C1.75977 186.223 2.11296 184.811 2.81934 183.443C3.52572 182.076 4.55111 180.857 5.89551 179.786C7.23991 178.715 8.84635 177.872 10.7148 177.257C12.5833 176.642 14.6797 176.334 17.0039 176.334C19.7839 176.334 22.2448 176.801 24.3867 177.735C26.5514 178.67 28.249 180.082 29.4795 181.974C30.7327 183.842 31.3594 186.189 31.3594 189.015V205.455C31.3594 207.141 31.4733 208.657 31.7012 210.001C31.9518 211.323 32.305 212.473 32.7607 213.453V214H24.3184C23.931 213.111 23.6234 211.983 23.3955 210.616C23.1904 209.226 23.0879 207.882 23.0879 206.583ZM24.2842 191.51L24.3525 196.603H18.4395C16.9128 196.603 15.5684 196.751 14.4062 197.047C13.2441 197.32 12.2757 197.73 11.501 198.277C10.7262 198.824 10.1452 199.485 9.75781 200.26C9.37044 201.035 9.17676 201.912 9.17676 202.892C9.17676 203.871 9.40462 204.771 9.86035 205.592C10.3161 206.389 10.9769 207.016 11.8428 207.472C12.7314 207.927 13.8024 208.155 15.0557 208.155C16.7419 208.155 18.2116 207.813 19.4648 207.13C20.7409 206.424 21.7435 205.569 22.4727 204.566C23.2018 203.541 23.5892 202.573 23.6348 201.661L26.3008 205.318C26.0273 206.253 25.5602 207.255 24.8994 208.326C24.2386 209.397 23.3727 210.423 22.3018 211.402C21.2536 212.359 19.9889 213.146 18.5078 213.761C17.0495 214.376 15.3633 214.684 13.4492 214.684C11.0339 214.684 8.88053 214.205 6.98926 213.248C5.09798 212.268 3.61686 210.958 2.5459 209.317C1.47493 207.654 0.939453 205.774 0.939453 203.678C0.939453 201.718 1.30404 199.986 2.0332 198.482C2.78516 196.956 3.87891 195.68 5.31445 194.654C6.77279 193.629 8.55013 192.854 10.6465 192.33C12.7428 191.783 15.1354 191.51 17.8242 191.51H24.2842ZM48.1416 184.913V214H39.9043V177.018H47.6631L48.1416 184.913ZM46.6719 194.142L44.0059 194.107C44.0286 191.487 44.3932 189.083 45.0996 186.896C45.8288 184.708 46.8314 182.828 48.1074 181.256C49.4062 179.684 50.9557 178.476 52.7559 177.633C54.556 176.767 56.5612 176.334 58.7715 176.334C60.5488 176.334 62.1553 176.585 63.5908 177.086C65.0492 177.564 66.291 178.351 67.3164 179.444C68.3646 180.538 69.1621 181.962 69.709 183.717C70.2559 185.449 70.5293 187.579 70.5293 190.108V214H62.2578V190.074C62.2578 188.297 61.9958 186.896 61.4717 185.87C60.9704 184.822 60.2298 184.081 59.25 183.648C58.293 183.193 57.0967 182.965 55.6611 182.965C54.2484 182.965 52.9837 183.261 51.8672 183.854C50.7507 184.446 49.805 185.255 49.0303 186.28C48.2783 187.306 47.6973 188.491 47.2871 189.835C46.877 191.179 46.6719 192.615 46.6719 194.142ZM89.6699 209.967L99.7188 177.018H108.537L93.7031 219.64C93.3613 220.551 92.917 221.542 92.3701 222.613C91.8232 223.684 91.1055 224.698 90.2168 225.655C89.3509 226.635 88.2686 227.421 86.9697 228.014C85.6709 228.629 84.0986 228.937 82.2529 228.937C81.5238 228.937 80.8174 228.868 80.1338 228.731C79.473 228.618 78.8464 228.492 78.2539 228.355L78.2197 222.066C78.4476 222.089 78.721 222.112 79.04 222.135C79.3818 222.158 79.6553 222.169 79.8604 222.169C81.2275 222.169 82.3669 221.998 83.2783 221.656C84.1898 221.337 84.9303 220.813 85.5 220.084C86.0924 219.355 86.5938 218.375 87.0039 217.145L89.6699 209.967ZM83.9961 177.018L92.7803 204.703L94.25 213.385L88.542 214.854L75.1094 177.018H83.9961ZM153.244 206.344V161.5H161.516V214H154.03L153.244 206.344ZM129.182 195.919V195.201C129.182 192.398 129.512 189.846 130.173 187.545C130.834 185.221 131.791 183.227 133.044 181.563C134.297 179.877 135.824 178.59 137.624 177.701C139.424 176.79 141.452 176.334 143.708 176.334C145.941 176.334 147.901 176.767 149.587 177.633C151.273 178.499 152.709 179.741 153.894 181.358C155.078 182.953 156.024 184.868 156.73 187.101C157.437 189.311 157.938 191.772 158.234 194.483V196.773C157.938 199.417 157.437 201.832 156.73 204.02C156.024 206.207 155.078 208.098 153.894 209.693C152.709 211.288 151.262 212.519 149.553 213.385C147.867 214.251 145.896 214.684 143.64 214.684C141.407 214.684 139.39 214.216 137.59 213.282C135.812 212.348 134.297 211.038 133.044 209.352C131.791 207.665 130.834 205.683 130.173 203.404C129.512 201.103 129.182 198.608 129.182 195.919ZM137.419 195.201V195.919C137.419 197.605 137.567 199.177 137.863 200.636C138.182 202.094 138.672 203.382 139.333 204.498C139.994 205.592 140.848 206.458 141.896 207.096C142.967 207.711 144.243 208.019 145.725 208.019C147.593 208.019 149.131 207.608 150.339 206.788C151.547 205.968 152.492 204.863 153.176 203.473C153.882 202.06 154.361 200.488 154.611 198.756V192.569C154.475 191.225 154.19 189.972 153.757 188.81C153.347 187.647 152.788 186.633 152.082 185.768C151.376 184.879 150.498 184.195 149.45 183.717C148.425 183.215 147.206 182.965 145.793 182.965C144.289 182.965 143.013 183.284 141.965 183.922C140.917 184.56 140.051 185.437 139.367 186.554C138.706 187.67 138.216 188.969 137.897 190.45C137.578 191.931 137.419 193.515 137.419 195.201ZM186.433 214.684C183.698 214.684 181.226 214.239 179.016 213.351C176.828 212.439 174.96 211.174 173.41 209.557C171.883 207.939 170.71 206.036 169.89 203.849C169.069 201.661 168.659 199.303 168.659 196.773V195.406C168.659 192.512 169.081 189.892 169.924 187.545C170.767 185.198 171.94 183.193 173.444 181.529C174.948 179.843 176.726 178.556 178.776 177.667C180.827 176.778 183.049 176.334 185.441 176.334C188.085 176.334 190.397 176.778 192.38 177.667C194.362 178.556 196.003 179.809 197.302 181.427C198.623 183.022 199.603 184.924 200.241 187.135C200.902 189.345 201.232 191.783 201.232 194.449V197.97H172.658V192.057H193.098V191.407C193.052 189.926 192.756 188.536 192.209 187.237C191.685 185.938 190.876 184.89 189.782 184.093C188.688 183.295 187.23 182.896 185.407 182.896C184.04 182.896 182.821 183.193 181.75 183.785C180.702 184.355 179.825 185.187 179.118 186.28C178.412 187.374 177.865 188.696 177.478 190.245C177.113 191.772 176.931 193.492 176.931 195.406V196.773C176.931 198.391 177.147 199.895 177.58 201.285C178.036 202.652 178.697 203.849 179.562 204.874C180.428 205.899 181.477 206.708 182.707 207.301C183.938 207.87 185.339 208.155 186.911 208.155C188.894 208.155 190.66 207.757 192.209 206.959C193.758 206.161 195.103 205.034 196.242 203.575L200.583 207.779C199.785 208.941 198.749 210.058 197.473 211.129C196.197 212.177 194.636 213.032 192.79 213.692C190.967 214.353 188.848 214.684 186.433 214.684ZM219.211 207.472L228.269 177.018H236.813L223.962 214H218.63L219.211 207.472ZM212.272 177.018L221.501 207.608L221.945 214H216.613L203.693 177.018H212.272ZM250.725 177.018V214H242.453V177.018H250.725ZM241.906 167.311C241.906 166.057 242.316 165.021 243.137 164.2C243.98 163.357 245.142 162.936 246.623 162.936C248.081 162.936 249.232 163.357 250.075 164.2C250.918 165.021 251.34 166.057 251.34 167.311C251.34 168.541 250.918 169.566 250.075 170.387C249.232 171.207 248.081 171.617 246.623 171.617C245.142 171.617 243.98 171.207 243.137 170.387C242.316 169.566 241.906 168.541 241.906 167.311ZM274.855 208.121C276.2 208.121 277.408 207.859 278.479 207.335C279.572 206.788 280.45 206.036 281.11 205.079C281.794 204.122 282.17 203.017 282.238 201.764H289.997C289.951 204.156 289.245 206.332 287.878 208.292C286.511 210.252 284.699 211.812 282.443 212.975C280.188 214.114 277.692 214.684 274.958 214.684C272.132 214.684 269.672 214.205 267.575 213.248C265.479 212.268 263.736 210.924 262.346 209.215C260.956 207.506 259.908 205.535 259.201 203.302C258.518 201.069 258.176 198.676 258.176 196.124V194.928C258.176 192.376 258.518 189.983 259.201 187.75C259.908 185.494 260.956 183.512 262.346 181.803C263.736 180.094 265.479 178.761 267.575 177.804C269.672 176.824 272.121 176.334 274.924 176.334C277.886 176.334 280.484 176.926 282.717 178.111C284.95 179.273 286.704 180.903 287.98 182.999C289.279 185.073 289.951 187.488 289.997 190.245H282.238C282.17 188.878 281.828 187.647 281.213 186.554C280.62 185.437 279.777 184.549 278.684 183.888C277.613 183.227 276.325 182.896 274.821 182.896C273.158 182.896 271.779 183.238 270.686 183.922C269.592 184.583 268.737 185.494 268.122 186.656C267.507 187.796 267.062 189.083 266.789 190.519C266.538 191.931 266.413 193.401 266.413 194.928V196.124C266.413 197.651 266.538 199.132 266.789 200.567C267.04 202.003 267.473 203.29 268.088 204.43C268.726 205.546 269.592 206.446 270.686 207.13C271.779 207.791 273.169 208.121 274.855 208.121ZM312.624 214.684C309.89 214.684 307.417 214.239 305.207 213.351C303.02 212.439 301.151 211.174 299.602 209.557C298.075 207.939 296.901 206.036 296.081 203.849C295.261 201.661 294.851 199.303 294.851 196.773V195.406C294.851 192.512 295.272 189.892 296.115 187.545C296.958 185.198 298.132 183.193 299.636 181.529C301.14 179.843 302.917 178.556 304.968 177.667C307.019 176.778 309.24 176.334 311.633 176.334C314.276 176.334 316.589 176.778 318.571 177.667C320.554 178.556 322.194 179.809 323.493 181.427C324.815 183.022 325.795 184.924 326.433 187.135C327.093 189.345 327.424 191.783 327.424 194.449V197.97H298.85V192.057H319.289V191.407C319.243 189.926 318.947 188.536 318.4 187.237C317.876 185.938 317.067 184.89 315.974 184.093C314.88 183.295 313.422 182.896 311.599 182.896C310.231 182.896 309.012 183.193 307.941 183.785C306.893 184.355 306.016 185.187 305.31 186.28C304.603 187.374 304.056 188.696 303.669 190.245C303.304 191.772 303.122 193.492 303.122 195.406V196.773C303.122 198.391 303.339 199.895 303.771 201.285C304.227 202.652 304.888 203.849 305.754 204.874C306.62 205.899 307.668 206.708 308.898 207.301C310.129 207.87 311.53 208.155 313.103 208.155C315.085 208.155 316.851 207.757 318.4 206.959C319.95 206.161 321.294 205.034 322.434 203.575L326.774 207.779C325.977 208.941 324.94 210.058 323.664 211.129C322.388 212.177 320.827 213.032 318.981 213.692C317.159 214.353 315.039 214.684 312.624 214.684Z" fill="#253858"/>
</svg>
