<svg width="40" height="32" viewBox="0 0 40 32" fill="none" xmlns="http://www.w3.org/2000/svg">
<path d="M31.1617 14.6644H8.8784C7.1203 14.6644 5.69507 15.8172 5.69507 17.2393V26.2512C5.69507 27.6733 7.1203 28.8261 8.8784 28.8261H31.1617C32.9198 28.8261 34.3451 27.6733 34.3451 26.2512V17.2393C34.3451 15.8172 32.9198 14.6644 31.1617 14.6644Z" stroke="black" stroke-linecap="round" stroke-linejoin="round"/>
<path d="M12.0618 14.6644V9.51472C12.0618 7.80749 12.9002 6.17018 14.3927 4.96299C15.8852 3.7558 17.9094 3.0776 20.0201 3.0776C22.1308 3.0776 24.155 3.7558 25.6475 4.96299C27.14 6.17018 27.9784 7.80749 27.9784 9.51472V14.6644" stroke="black" stroke-linecap="round" stroke-linejoin="round"/>
</svg>
