<svg width="19" height="18" viewBox="0 0 19 18" fill="none" xmlns="http://www.w3.org/2000/svg">
<path d="M18.2633 6.89477L12.7525 6.12374L10.289 1.31579C10.2217 1.18415 10.111 1.07758 9.97428 1.01281C9.63135 0.849828 9.21461 0.985646 9.04315 1.31579L6.57967 6.12374L1.06885 6.89477C0.916917 6.91566 0.778007 6.98462 0.671654 7.08909C0.543079 7.21631 0.472229 7.38747 0.47467 7.56496C0.477112 7.74245 0.552647 7.91174 0.684677 8.03564L4.67183 11.7779L3.72984 17.0623C3.70775 17.1852 3.72188 17.3117 3.77063 17.4272C3.81938 17.5428 3.90079 17.643 4.00564 17.7163C4.11049 17.7896 4.23458 17.8331 4.36384 17.842C4.49309 17.8509 4.62235 17.8247 4.73694 17.7665L9.66607 15.2716L14.5952 17.7665C14.7298 17.8354 14.886 17.8584 15.0358 17.8333C15.4135 17.7706 15.6674 17.4259 15.6023 17.0623L14.6603 11.7779L18.6475 8.03564C18.756 7.93325 18.8276 7.79952 18.8493 7.65326C18.9079 7.28759 18.6431 6.94909 18.2633 6.89477Z" fill="#FF5D02"/>
</svg>
